{"title":"13.Hours.The.Secret.Soldiers.of.Benghazi.2016.1080p.Bluray-DDR","uid":14706594,"size":17011692137,"categoryP":"video","categoryS":"hd___movies","magnet":"?xt=urn:btih:65939f58454c7e08bd87faf3567d8cf5a6a9b77d&amp;dn=13.Hours.The.Secret.Soldiers.of.Benghazi.2016.1080p.Bluray-DDR&amp;tr=udp%3A%2F%2Ftracker.leechers-paradise.org%3A6969&amp;tr=udp%3A%2F%2Fzer0day.ch%3A1337&amp;tr=udp%3A%2F%2Fopen.demonii.com%3A1337&amp;tr=udp%3A%2F%2Ftracker.coppersurfer.tk%3A6969&amp;tr=udp%3A%2F%2Fexodus.desync.com%3A6969","seeders":6,"leechers":2,"uploader":"SaM","files":4,"time":1464367701,"description":"\n- HollywooD MoviE -\r\n**- 13 Hours - The Secret Soldiers of Benghazi -**\r\n- (2016) -\r\n** HQ 1080p Blu-Ray / x264 / Dolby ATMOS 7.1 **\r\nEnglish / French / Spanish subtitle(s)\r\n\r\n~* SCREENSHOTS *~\r\n \nhttp://extraimago.com/image/a0X0 \nhttp://extraimago.com/image/a0Xz \nhttp://extraimago.com/image/a0XU \nhttp://extraimago.com/image/a0XM \nhttp://extraimago.com/image/a0X9 \nhttp://extraimago.com/image/a0X3 \nhttp://extraimago.com/image/a0Xb \nhttp://extraimago.com/image/a0Xh \nhttp://extraimago.com/image/a0Xd \nhttp://extraimago.com/image/a0XI \nhttp://extraimago.com/image/a0Xl\r\n\r\n[ Specs ]\r\nGeneral\r\nSource = BD50 @ DDR\r\nFormat : Matroska\r\nFile size : 15.7 GiB\r\nDuration : 2h 24mn\r\nOverall bit rate mode : Variable\r\nOverall bit rate : 15.5 Mbps\r\n\r\nVideo\r\nFormat : AVC\r\nFormat profile :   \r\nBit rate : 10 000 Kbps\r\nWidth : 1 920 pixels\r\nHeight : 800 pixels\r\nDisplay aspect ratio : 2.40:1\r\nFrame rate mode : Constant\r\nFrame rate : 23.976 (24000/1001) fps\r\ncolor space : YUV\r\nChroma subsampling : 4:2:0\r\nBit depth : 8 bits\r\nScan type : Progressive\r\nBits/(Pixel*Frame) : 0.272\r\nStream size : 10.1 GiB (64%)\r\nTransfer characteristics : BT.709\r\n\r\nAudio #1\r\nFormat : Atmos / TrueHD\r\nCodec ID : A_TRUEHD\r\nDuration : 2h 24mn\r\nBit rate mode : Variable\r\nBit rate : 4 641 Kbps\r\nMaximum bit rate : 7 500 Kbps\r\nChannel(s) : Object Based / 8 channels\r\nChannel positions : Object Based / Front: L C R, Side: L R, Back: L R, LFE\r\nSampling rate : / 48.0 KHz\r\nFrame rate : 1 200.000 fps (40 spf)\r\nCompression mode : Lossless\r\nStream size : 4.68 GiB (30%)\r\nLanguage : English\r\nDefault : Yes\r\nForced : No\r\n\r\nAudio #2\r\nFormat : AC-3\r\nFormat/Info : Audio Coding 3\r\nMode extension : CM (complete main)\r\nFormat settings, Endianness : Big\r\nCodec ID : A_AC3\r\nDuration : 2h 24mn\r\nBit rate mode : Constant\r\nBit rate : 640 Kbps\r\nChannel(s) : 6 channels\r\nChannel positions : Front: L C R, Side: L R, LFE\r\nSampling rate : 48.0 KHz\r\nFrame rate : 31.250 fps (1536 spf)\r\nCompression mode : Lossy\r\nStream size : 661 MiB (4%)\r\nDefault : No\r\nForced : No\r\n\r\nChapters: YES\r\n\r\n\r\nA DDR Exclusive Release...!","torrent":{"xt":"urn:btih:65939f58454c7e08bd87faf3567d8cf5a6a9b77d","amp;dn":"13.Hours.The.Secret.Soldiers.of.Benghazi.2016.1080p.Bluray-DDR","amp;tr":["udp%3A%2F%2Ftracker.leechers-paradise.org%3A6969","udp%3A%2F%2Fzer0day.ch%3A1337","udp%3A%2F%2Fopen.demonii.com%3A1337","udp%3A%2F%2Ftracker.coppersurfer.tk%3A6969","udp%3A%2F%2Fexodus.desync.com%3A6969"],"infoHash":"65939f58454c7e08bd87faf3567d8cf5a6a9b77d","infoHashBuffer":{"type":"Buffer","data":[101,147,159,88,69,76,126,8,189,135,250,243,86,125,140,245,166,169,183,125]},"announce":[],"urlList":[]}}